<?xml version="1.0" encoding="utf-8"?>
<!-- Generator: Adobe Illustrator 16.0.0, SVG Export Plug-In . SVG Version: 6.00 Build 0)  -->
<!DOCTYPE svg PUBLIC "-//W3C//DTD SVG 1.1//EN" "http://www.w3.org/Graphics/SVG/1.1/DTD/svg11.dtd">
<svg version="1.1" id="Layer_1" xmlns="http://www.w3.org/2000/svg" xmlns:xlink="http://www.w3.org/1999/xlink" x="0px" y="0px"
	 width="1220.939px" height="310.485px" viewBox="0 0 1220.939 310.485" enable-background="new 0 0 1220.939 310.485"
	 xml:space="preserve">
<path d="M686.825,93.312v33.429h-6.174c-1.027-8.401-3.942-15.089-8.916-20.057c-4.971-4.973-13.719-7.371-20.921-7.371
	c-5.312,0-12.518,1.367-15.774,4.112c-3.259,2.745-4.974,6.344-4.974,10.8c0,4.459,1.544,8.232,4.629,11.66
	c3.084,3.259,12.35,7.374,22.636,12c13.2,6.002,24.692,11.661,28.805,17.143c4.287,5.49,6.344,12.175,6.344,19.718
	c0,9.085-3.429,16.974-10.116,23.661c-6.857,6.684-17.489,9.943-26.922,9.943c-4.799,0-13.892-1.715-21.773-5.143
	c-4.29-1.884-7.202-2.914-8.574-2.914c-1.884,0-3.429,0.686-4.799,2.059c-1.37,1.371-2.059,3.086-2.229,5.312h-5.143v-37.028h5.143
	c1.885,9.771,6.172,17.485,12.687,23.145c6.515,5.656,16.631,8.572,25.033,8.572c5.314,0,12.69-1.715,16.292-5.487
	c3.6-3.601,5.486-8.058,5.486-13.372c0-5.143-1.714-9.432-4.973-13.203c-3.429-3.771-13.377-8.055-24.52-13.028
	c-12.514-5.487-23.662-10.63-27.605-15.429c-3.945-4.801-6.003-10.632-6.003-17.317c0-8.574,3.258-15.773,9.771-21.947
	c6.519-6.173,16.979-9.257,26.064-9.257c4.287,0,11.491,1.03,16.464,2.915c3.428,1.372,6.343,2.058,8.571,2.058
	c2.915,0,4.973-1.715,6.515-5.143h4.974v0.17H686.825z"/>
<path d="M96.285,204.957H15.192v-5.143c7.543,0,12.686-2.059,15.603-6.172c2.914-3.944,4.287-11.317,4.287-21.773V62.314
	c0-10.63-1.37-18.001-4.115-22.116c-2.742-3.944-8.057-6.001-15.773-6.001v-5.143h66.348c19.032,0,33.946,3.943,44.918,11.83
	c10.972,7.886,16.287,18.172,16.287,31.03c0,18.86-11.83,32.062-35.316,39.776v0.858c13.375,2.744,24.347,8.571,32.746,17.831
	c8.402,9.088,12.686,19.718,12.686,31.546c0,13.033-5.143,23.491-15.603,31.204C126.974,201.011,113.258,204.957,96.285,204.957
	 M58.396,35.912v74.408h18.173c12.684,0,22.8-3.256,30.346-9.944c7.545-6.687,11.316-15.603,11.316-26.919
	c0-11.83-3.601-21.088-10.972-27.773C99.885,39.168,89.6,35.74,76.055,35.74H58.396V35.912z M75.027,117.004H58.396v51.603
	c0,11.316,1.2,19.205,3.773,23.318c2.572,4.113,7.371,6.172,14.4,6.172h14.573c10.285,0,18.515-3.429,25.03-10.285
	c6.516-6.857,9.6-16.115,9.6-27.432c0-13.031-4.629-23.488-13.887-31.374C102.63,121.12,90.455,117.004,75.027,117.004"/>
<path d="M218.17,199.814h2.915v5.143h-60.692v-5.143h5.488c5.487,0,9.43-1.373,11.316-4.287c2.056-2.914,2.912-8.231,2.912-16.287
	V51.17c0-5.659-1.028-9.429-3.256-11.66c-2.229-2.228-6.002-3.258-11.317-3.258h-7.027v-5.144l37.375-3.77h5.143v156.87
	c0,6.002,1.2,9.943,3.598,12.003C207.028,198.787,211.657,199.814,218.17,199.814"/>
<path d="M266.646,208.22c-8.572,0-15.773-2.742-21.947-8.401c-6.17-5.657-9.085-12.514-9.085-20.401
	c0-7.543,2.573-13.888,7.885-18.857c5.315-4.973,15.945-9.602,32.062-14.231c10.116-2.742,16.974-5.142,20.402-7.198v-8.06
	c0-7.886-2.228-14.229-6.515-19.202c-4.459-4.798-10.288-7.201-17.659-7.201c-6.688,0-12.687,2.059-17.832,6.343
	c-5.143,4.115-8.744,9.944-10.972,17.145l-5.487-1.544c2.228-10.116,7.029-18.173,14.231-24.347
	c7.371-6.001,15.942-9.085,25.889-9.085c11.658,0,21.085,3.428,28.459,10.63c7.201,7.027,10.799,16.803,10.799,29.317v46.633
	c0,6.687,0.345,11.144,1.201,13.372c0.858,2.4,2.4,3.601,4.798,3.601c1.545,0,2.915-0.685,3.945-2.058
	c1.028-1.371,2.057-4.116,3.429-8.402h5.312c-0.514,6.857-2.572,12.174-6.343,16.114c-3.773,3.944-8.741,6.001-14.744,6.001
	c-8.916,0-15.087-5.143-18.516-15.428c-5.315,5.828-10.116,9.945-14.4,12.174C277.276,207.02,272.303,208.22,266.646,208.22
	 M295.791,182.675v-36.86c-3.084,1.37-7.541,2.915-13.542,4.974c-10.802,3.772-17.832,7.371-20.918,10.968
	c-3.085,3.602-4.629,8.574-4.629,14.748c0,5.312,1.544,10.113,4.801,14.057c3.256,3.945,7.027,6.001,11.658,6.001
	c4.115,0,8.402-1.368,12.858-3.94C290.648,189.878,293.907,186.619,295.791,182.675"/>
<path d="M445.698,93.519v38.233h-5.315c-2.228-9.943-6.685-17.831-13.2-23.658c-6.515-5.829-14.229-8.743-23.144-8.743
	c-10.803,0-19.546,4.112-26.403,12.514c-6.86,8.401-10.116,19.204-10.116,32.748c0,14.742,3.942,27.602,12,38.402
	c8.057,10.803,17.659,16.115,28.631,16.115c7.374,0,14.745-2.059,21.946-6c7.202-4.115,13.545-9.603,18.688-16.633v7.889
	c-11.831,15.942-27.773,24.002-48.005,24.002c-16.115,0-29.148-5.143-39.259-15.258c-10.116-10.285-15.259-23.492-15.259-39.776
	c0-16.628,5.487-30.859,16.457-42.517c10.972-11.661,24.174-17.49,39.605-17.49c6.858,0,14.573,1.373,23.145,4.115
	c3.772,1.201,6.173,1.887,7.715,1.887c3.087,0,5.487-2.059,7.374-6.004h5.142v0.174H445.698z"/>
<path d="M551.753,114.607l-28.117,25.714l45.09,45.262c4.973,5.143,9.432,8.744,13.031,10.631c3.598,1.884,8.22,3.086,13.537,3.428
	v5.143h-35.481l-56.576-54.175c0,28.458,1.2,43.89,3.6,45.946c2.398,2.06,7.202,3.257,14.573,3.257v5.145h-58.463v-5.145
	c8.402-0.17,13.717-1.542,15.945-3.939c2.229-2.401,3.429-8.061,3.429-16.805V51.34c0-6.343-1.2-10.285-3.602-12.174
	c-2.397-1.884-7.541-2.743-15.772-2.743v-5.142l35.146-3.774h5.143v122.069l29.147-26.742c5.657-5.146,8.402-9.775,8.402-13.717
	c0-4.799-4.459-7.371-13.203-7.541v-5.145h59.144v5.145h-5.31C571.129,101.232,561.185,105.691,551.753,114.607"/>
<path d="M798.781,182.16v-53.662c0-7.201-2.059-13.03-6.001-17.317c-3.944-4.287-9.258-6.516-15.944-6.516
	c-6.171,0-11.486,1.545-16.459,4.799c-4.799,3.084-9.944,8.402-15.258,15.943v59.663c0,5.656,1.198,9.432,3.943,11.486
	c2.572,2.058,7.371,3.258,14.229,3.258v5.143h-58.29v-5.143c8.229-0.169,13.544-1.544,15.944-4.114
	c2.229-2.573,3.429-8.058,3.429-16.804V52.715c0-6.517-1.2-10.972-3.429-13.202c-2.4-2.057-7.544-3.259-15.775-3.259v-5.143
	l34.977-3.771h5.144v87.439c7.026-8.06,13.372-13.545,18.856-16.804c5.659-3.258,12.003-4.798,19.032-4.798
	c10.63,0,19.201,3.428,26.059,10.113c6.859,6.857,10.115,15.945,10.115,27.431v48.005c0,8.572,1.2,14.061,3.429,16.804
	c2.231,2.742,7.029,4.114,14.06,4.114v5.143h-56.405v-5.143c7.372,0,12.172-1.202,14.573-3.428
	C797.582,193.99,798.781,189.359,798.781,182.16"/>
<path d="M949.028,177.148v7.885c-6.685,8.4-13.372,14.399-20.229,18.004c-6.857,3.603-15.089,5.314-24.689,5.314
	c-16.973,0-31.032-5.314-42.004-15.945c-10.972-10.629-16.629-24.174-16.629-40.461c0-16.459,5.313-30.345,15.772-41.664
	c10.457-11.314,23.489-16.971,38.745-16.971c12.515,0,23.489,4.287,32.916,12.684c9.433,8.574,14.06,21.393,14.06,33.054v2.231
	H867.42v-1.164c0,12,1.887,22.459,5.486,31.202c3.602,8.918,8.916,15.775,15.945,20.748c7.027,4.971,14.229,7.541,21.944,7.541
	c7.028,0,13.199-1.543,18.173-4.459C933.942,192.404,940.63,186.406,949.028,177.148 M867.42,136.307h59.824v-4.765
	c0-10.463-3.301-17.346-9.225-23.298c-6.034-5.929-13.554-8.419-20.596-8.419c-8.213-0.001-15.229,2.92-21.261,8.915
	C868.587,116.354,866.938,125.306,867.42,136.307"/>
<path d="M1067.354,177.148v7.885c-6.685,8.4-13.372,14.399-20.229,18.004c-6.857,3.603-15.09,5.314-24.689,5.314
	c-16.973,0-31.032-5.314-42.004-15.945c-10.972-10.629-16.629-24.174-16.629-40.461c0-16.459,5.312-30.345,15.773-41.664
	c10.455-11.314,23.488-16.971,38.744-16.971c12.515,0,23.489,4.287,32.916,12.684c9.433,8.574,14.06,21.393,14.06,33.054v2.231
	h-79.551v-1.164c0,12,1.887,22.459,5.486,31.202c3.602,8.918,8.916,15.775,15.945,20.748c7.027,4.971,14.229,7.541,21.944,7.541
	c7.028,0,13.199-1.543,18.173-4.459C1052.268,192.404,1058.955,186.406,1067.354,177.148 M985.745,136.307h59.824v-4.765
	c0-10.463-3.301-17.346-9.224-23.298c-6.034-5.929-13.555-8.419-20.597-8.419c-8.214-0.001-15.229,2.92-21.261,8.915
	C986.912,116.354,985.265,125.306,985.745,136.307"/>
<path d="M1118.431,119.304v68.206c8.538,9.014,18.579,13.521,30.122,13.521c9.74,0,17.878-4.557,24.463-13.671
	s9.865-20.432,9.865-33.953c0-14.623-3.28-26.691-9.865-36.206c-6.585-9.515-14.924-14.273-25.063-14.273
	C1137.711,102.928,1127.87,108.387,1118.431,119.304 M1118.431,92.863v18.329c6.911-6.711,13.22-11.443,18.879-14.198
	c5.685-2.754,12.02-4.131,19.056-4.131c14.146,0,25.864,5.383,35.203,16.15c9.341,10.767,13.997,24.313,13.997,40.638
	c0,16.826-5.133,30.798-15.424,41.915s-23.211,16.676-38.76,16.676c-10.742,0-21.709-4.307-32.951-12.92v71.661
	c0,7.412,1.277,12.295,3.831,14.647c2.554,2.354,7.336,3.531,14.348,3.531v5.107h-58.291v-5.107c7.512,0,12.569-1.052,15.174-3.154
	c2.604-2.104,3.905-6.123,3.905-12.032v-151.71c0-7.312-1.102-11.981-3.305-13.985c-2.203-2.002-7.462-3.004-15.774-3.004v-5.108
	l34.854-3.305H1118.431z"/>
</svg>
