<?xml version="1.0" encoding="utf-8"?>
<!-- Generator: Adobe Illustrator 16.0.0, SVG Export Plug-In . SVG Version: 6.00 Build 0)  -->
<!DOCTYPE svg PUBLIC "-//W3C//DTD SVG 1.1//EN" "http://www.w3.org/Graphics/SVG/1.1/DTD/svg11.dtd">
<svg version="1.1" id="Layer_1" xmlns="http://www.w3.org/2000/svg" xmlns:xlink="http://www.w3.org/1999/xlink" x="0px" y="0px"
	 width="1600px" height="1000px" viewBox="0 0 1600 1000" enable-background="new 0 0 1600 1000" xml:space="preserve">
<g>
	<path fill="#231F20" d="M880.302,461.175v35.029h-6.468c-1.078-8.805-4.133-15.812-9.345-21.018
		c-5.208-5.21-14.375-7.722-21.921-7.722c-5.566,0-13.119,1.431-16.531,4.308c-3.413,2.875-5.209,6.646-5.209,11.316
		c0,4.672,1.618,8.626,4.848,12.217c3.23,3.417,12.94,7.729,23.72,12.575c13.831,6.289,25.877,12.218,30.185,17.963
		c4.491,5.753,6.646,12.757,6.646,20.661c0,9.519-3.595,17.787-10.603,24.793c-7.182,7.005-18.325,10.42-28.208,10.42
		c-5.028,0-14.556-1.795-22.815-5.392c-4.494-1.972-7.548-3.052-8.987-3.052c-1.972,0-3.59,0.719-5.026,2.16
		c-1.435,1.437-2.155,3.229-2.334,5.564h-5.388v-38.8h5.388c1.976,10.236,6.469,18.321,13.293,24.252
		c6.828,5.927,17.428,8.983,26.231,8.983c5.569,0,13.298-1.799,17.071-5.753c3.771-3.774,5.749-8.441,5.749-14.011
		c0-5.39-1.798-9.884-5.211-13.833c-3.591-3.951-14.018-8.442-25.692-13.655c-13.112-5.748-24.795-11.136-28.926-16.164
		c-4.133-5.032-6.293-11.143-6.293-18.146c0-8.985,3.418-16.53,10.241-22.998c6.829-6.47,17.792-9.7,27.31-9.7
		c4.493,0,12.041,1.08,17.254,3.053c3.591,1.438,6.646,2.158,8.982,2.158c3.052,0,5.209-1.797,6.824-5.388h5.212v0.177H880.302
		L880.302,461.175z"/>
	<path d="M239.229,486.001H221.8v54.07c0,11.86,1.259,20.125,3.956,24.436c2.695,4.311,7.721,6.466,15.087,6.466h15.271
		c10.777,0,19.402-3.592,26.229-10.776c6.826-7.189,10.058-16.886,10.058-28.744c0-13.654-4.85-24.611-14.551-32.875
		C268.152,490.311,255.396,486.001,239.229,486.001 M221.8,401.027v77.968h19.043c13.292,0,23.891-3.412,31.798-10.418
		c7.908-7.008,11.858-16.351,11.858-28.208c0-12.396-3.773-22.099-11.498-29.101c-7.726-6.827-18.504-10.421-32.697-10.421H221.8
		V401.027L221.8,401.027z M261.503,578.162h-84.974v-5.392c7.905,0,13.293-2.154,16.351-6.466c3.052-4.132,4.491-11.86,4.491-22.815
		V428.694c0-11.138-1.437-18.863-4.312-23.174c-2.873-4.135-8.442-6.289-16.528-6.289v-5.391h69.522
		c19.943,0,35.572,4.132,47.068,12.399c11.497,8.261,17.065,19.04,17.065,32.512c0,19.763-12.396,33.597-37.005,41.681v0.899
		c14.015,2.875,25.511,8.979,34.313,18.685c8.802,9.524,13.293,20.662,13.293,33.054c0,13.658-5.388,24.614-16.351,32.699
		C293.662,574.029,279.288,578.162,261.503,578.162"/>
	<path fill="#231F20" d="M389.22,572.771h3.056v5.392H328.68v-5.392h5.75c5.749,0,9.879-1.437,11.857-4.488
		c2.155-3.058,3.05-8.63,3.05-17.068V417.017c0-5.93-1.076-9.882-3.412-12.218c-2.335-2.335-6.289-3.416-11.857-3.416h-7.364v-5.388
		l39.164-3.95h5.388v164.377c0,6.286,1.259,10.419,3.77,12.574C377.545,571.695,382.395,572.771,389.22,572.771"/>
	<path fill="#231F20" d="M470.556,554.814v-38.626c-3.231,1.438-7.902,3.056-14.191,5.214c-11.318,3.952-18.685,7.724-21.917,11.494
		c-3.232,3.77-4.853,8.982-4.853,15.452c0,5.569,1.621,10.599,5.034,14.726c3.412,4.137,7.361,6.293,12.216,6.293
		c4.31,0,8.802-1.434,13.474-4.128C465.167,562.361,468.58,558.947,470.556,554.814 M440.016,581.58c-8.983,0-16.53-2.87-22.998-8.8
		c-6.464-5.93-9.519-13.114-9.519-21.379c0-7.907,2.696-14.552,8.263-19.762c5.569-5.21,16.707-10.06,33.594-14.912
		c10.602-2.872,17.788-5.388,21.379-7.541v-8.447c0-8.264-2.335-14.911-6.826-20.12c-4.672-5.029-10.781-7.547-18.505-7.547
		c-7.007,0-13.293,2.158-18.683,6.647c-5.39,4.313-9.164,10.421-11.498,17.965l-5.75-1.617c2.334-10.601,7.364-19.042,14.911-25.512
		c7.724-6.287,16.707-9.521,27.129-9.521c12.215,0,22.095,3.594,29.818,11.141c7.547,7.361,11.319,17.606,11.319,30.72v48.863
		c0,7.006,0.361,11.678,1.256,14.011c0.899,2.518,2.516,3.775,5.03,3.775c1.616,0,3.053-0.718,4.133-2.154
		c1.078-1.438,2.155-4.316,3.591-8.81h5.566c-0.537,7.188-2.694,12.758-6.644,16.885c-3.955,4.138-9.16,6.292-15.45,6.292
		c-9.344,0-15.81-5.391-19.402-16.167c-5.569,6.109-10.599,10.42-15.09,12.759C451.154,580.321,445.943,581.58,440.016,581.58"/>
	<path fill="#231F20" d="M627.637,461.392v40.062h-5.569c-2.335-10.421-7.005-18.684-13.833-24.789
		c-6.827-6.109-14.909-9.164-24.25-9.164c-11.319,0-20.481,4.308-27.667,13.112c-7.189,8.806-10.599,20.124-10.599,34.317
		c0,15.447,4.13,28.92,12.573,40.236c8.441,11.322,18.504,16.891,30.001,16.891c7.727,0,15.451-2.16,22.998-6.288
		c7.544-4.314,14.191-10.062,19.582-17.429v8.263c-12.398,16.707-29.103,25.154-50.303,25.154c-16.885,0-30.542-5.391-41.136-15.988
		c-10.6-10.776-15.991-24.613-15.991-41.681c0-17.424,5.752-32.336,17.246-44.552c11.497-12.218,25.332-18.326,41.5-18.326
		c7.185,0,15.271,1.438,24.251,4.31c3.954,1.259,6.468,1.978,8.084,1.978c3.236,0,5.75-2.159,7.726-6.29h5.39v0.183H627.637
		L627.637,461.392z"/>
	<path fill="#231F20" d="M738.767,483.489l-29.462,26.943l47.247,47.432c5.21,5.385,9.885,9.161,13.654,11.138
		c3.77,1.972,8.611,3.234,14.185,3.592v5.391h-37.178l-59.285-56.77c0,29.821,1.258,45.988,3.772,48.144
		c2.515,2.16,7.547,3.413,15.271,3.413v5.392h-61.259v-5.392c8.802-0.178,14.371-1.614,16.707-4.131
		c2.336-2.514,3.592-8.443,3.592-17.604v-133.84c0-6.646-1.256-10.78-3.771-12.756c-2.515-1.976-7.903-2.875-16.527-2.875v-5.388
		l36.829-3.954h5.388v127.91l30.542-28.023c5.927-5.391,8.803-10.243,8.803-14.374c0-5.026-4.67-7.724-13.833-7.901v-5.392h61.974
		v5.392h-5.564C759.068,469.474,748.65,474.146,738.767,483.489"/>
	<path fill="#231F20" d="M997.614,554.271v-56.228c0-7.543-2.155-13.654-6.289-18.145c-4.132-4.491-9.699-6.828-16.706-6.828
		c-6.467,0-12.036,1.619-17.246,5.028c-5.028,3.233-10.421,8.805-15.987,16.707v62.518c0,5.925,1.255,9.883,4.132,12.034
		c2.694,2.16,7.723,3.413,14.908,3.413v5.392h-61.079v-5.392c8.623-0.174,14.194-1.614,16.706-4.31
		c2.337-2.696,3.595-8.442,3.595-17.608V418.634c0-6.829-1.258-11.497-3.595-13.833c-2.512-2.155-7.904-3.416-16.527-3.416v-5.388
		l36.647-3.951h5.392v91.621c7.362-8.443,14.011-14.191,19.759-17.607c5.93-3.416,12.577-5.028,19.941-5.028
		c11.138,0,20.123,3.592,27.307,10.597c7.189,7.187,10.6,16.71,10.6,28.745v50.3c0,8.982,1.26,14.734,3.593,17.608
		c2.337,2.874,7.365,4.311,14.729,4.311v5.391h-59.103v-5.391c7.725,0,12.756-1.259,15.271-3.592
		C996.358,566.671,997.614,561.816,997.614,554.271"/>
	<path fill="#231F20" d="M1069.539,506.227h62.686v-4.992c0-10.965-3.459-18.176-9.664-24.413
		c-6.324-6.214-14.204-8.821-21.582-8.824c-8.605,0-15.959,3.063-22.277,9.343C1070.761,485.319,1069.036,494.7,1069.539,506.227
		 M1155.053,549.021v8.26c-7.006,8.805-14.014,15.092-21.198,18.867c-7.185,3.774-15.811,5.569-25.868,5.569
		c-17.789,0-32.52-5.569-44.015-16.707c-11.499-11.138-17.427-25.332-17.427-42.397c0-17.249,5.566-31.798,16.528-43.66
		c10.958-11.855,24.614-17.783,40.598-17.783c13.114,0,24.614,4.492,34.493,13.291c9.884,8.986,14.732,22.418,14.732,34.635v2.339
		h-83.357v-1.218c0,12.574,1.975,23.534,5.75,32.69c3.771,9.35,9.34,16.534,16.706,21.745c7.363,5.207,14.909,7.903,22.995,7.903
		c7.363,0,13.83-1.62,19.042-4.673C1139.244,565.006,1146.25,558.723,1155.053,549.021"/>
	<path fill="#231F20" d="M1193.525,506.227h62.687v-4.992c0-10.965-3.46-18.176-9.665-24.413
		c-6.322-6.214-14.205-8.821-21.582-8.824c-8.605,0-15.958,3.063-22.277,9.343C1194.746,485.319,1193.022,494.7,1193.525,506.227
		 M1279.04,549.021v8.26c-7.007,8.805-14.015,15.092-21.196,18.867c-7.188,3.774-15.812,5.569-25.871,5.569
		c-17.788,0-32.518-5.569-44.016-16.707c-11.496-11.138-17.424-25.332-17.424-42.397c0-17.249,5.566-31.798,16.529-43.66
		c10.955-11.855,24.611-17.783,40.596-17.783c13.115,0,24.613,4.492,34.494,13.291c9.881,8.986,14.732,22.418,14.732,34.635v2.339
		h-83.359v-1.218c0,12.574,1.977,23.534,5.751,32.69c3.771,9.35,9.34,16.534,16.706,21.745c7.363,5.207,14.91,7.903,22.995,7.903
		c7.364,0,13.829-1.62,19.042-4.673C1263.232,565.006,1270.24,558.723,1279.04,549.021"/>
	<path fill="#231F20" d="M1332.559,460.705v19.204c7.243-7.031,13.854-11.991,19.784-14.877c5.956-2.886,12.594-4.327,19.966-4.327
		c14.823,0,27.103,5.639,36.889,16.922c9.787,11.281,14.668,25.476,14.668,42.583c0,17.633-5.379,32.271-16.162,43.922
		s-24.324,17.472-40.614,17.472c-11.259,0-22.749-4.514-34.53-13.537v75.092c0,7.766,1.34,12.881,4.017,15.348
		s7.687,3.696,15.032,3.696v5.355h-61.08v-5.355c7.872,0,13.171-1.097,15.898-3.304c2.729-2.205,4.094-6.414,4.094-12.605V487.322
		c0-7.661-1.153-12.556-3.463-14.654c-2.307-2.099-7.816-3.149-16.529-3.149v-5.352l36.524-3.461H1332.559L1332.559,460.705z
		 M1332.559,488.409v71.472c8.949,9.444,19.469,14.167,31.563,14.167c10.207,0,18.734-4.777,25.634-14.327
		c6.903-9.551,10.34-21.406,10.34-35.575c0-15.323-3.437-27.97-10.34-37.938c-6.899-9.971-15.636-14.957-26.263-14.957
		C1352.762,471.25,1342.451,476.972,1332.559,488.409L1332.559,488.409z"/>
</g>
</svg>
